PathFileType  4	(X/Y/Z) C:\Users\antoi\Documents\MyRepositories\mobilecap\ResultsAnalysis
DataRate	CameraRate	NumFrames	NumMarkers	Units	OrigDataRate	OrigDataStartFrame	OrigNumFrames
100.0	100.0	4	51	mm	100.0	36	280
Frame#	Time	r_knee			r_shank_antsup			r_ankle			r_calc			r_5meta			r_toe			L_knee			L_shank_antsup			L_ankle			L_calc			L_5meta			L_toe			r_sh2			r_sh3			r_sh4			L_sh2			L_sh3			r_thigh1			r_thigh2			r_thigh3			r_thigh4			r_thigh5			L_thigh1			L_thigh2			L_thigh3			L_thigh4			r.ASIS			r.PSIS			L.ASIS			L.PSIS			C7			R_Shoulder			L_Shoulder			R_Sternum			L_Sternum			R_humerus			R_elbow_med			R_elbow_lat			R_forearm			R_wrist_radius			R_wrist_ulna			L_humerus			L_elbow_med			L_elbow_lat			L_forearm			L_wrist_radius			L_wrist_ulna			R_HJC			L_HJC			R_HJC_reg			L_HJC_reg			
		X1	Y1	Z1	X2	Y2	Z2	X3	Y3	Z3	X4	Y4	Z4	X5	Y5	Z5	X6	Y6	Z6	X7	Y7	Z7	X8	Y8	Z8	X9	Y9	Z9	X10	Y10	Z10	X11	Y11	Z11	X12	Y12	Z12	X13	Y13	Z13	X14	Y14	Z14	X15	Y15	Z15	X16	Y16	Z16	X17	Y17	Z17	X18	Y18	Z18	X19	Y19	Z19	X20	Y20	Z20	X21	Y21	Z21	X22	Y22	Z22	X23	Y23	Z23	X24	Y24	Z24	X25	Y25	Z25	X26	Y26	Z26	X27	Y27	Z27	X28	Y28	Z28	X29	Y29	Z29	X30	Y30	Z30	X31	Y31	Z31	X32	Y32	Z32	X33	Y33	Z33	X34	Y34	Z34	X35	Y35	Z35	X36	Y36	Z36	X37	Y37	Z37	X38	Y38	Z38	X39	Y39	Z39	X40	Y40	Z40	X41	Y41	Z41	X42	Y42	Z42	X43	Y43	Z43	X44	Y44	Z44	X45	Y45	Z45	X46	Y46	Z46	X47	Y47	Z47	X48	Y48	Z48	X49	Y49	Z49	X50	Y50	Z50	X51	Y51	Z51	

36	0.35000000	-1079.12150	839.79989	-425.42536	-1074.84654	714.06830	-435.62800	-1252.08652	418.27891	-437.17333	-1324.79352	387.47876	-480.69012	-1124.95296	342.86305	-400.39649	-1090.31643	364.72952	-475.96378	-1124.75443	828.46860	-765.76139	-1097.14896	714.71789	-742.70836	-1266.91810	406.28550	-729.38718	-1331.46694	380.28054	-678.83360	-1130.09960	343.56894	-762.10051	-1095.81898	366.09358	-694.03387	-1107.32640	605.46972	-455.98417	-1134.93395	721.50739	-385.06760	-1160.36844	606.83372	-390.42148	-1174.57074	733.59497	-786.58333	-1183.48752	612.60583	-794.25681	-1023.48617	1082.49341	-452.42995	-1006.78063	970.39810	-465.78588	-1025.66221	939.54066	-406.75418	-1096.57373	1061.43091	-366.20620	-1078.61128	945.18142	-389.83890	-1072.72997	1084.61384	-784.93023	-1049.62336	950.20761	-768.24937	-1178.94543	1064.08558	-812.30698	-1156.10434	928.50535	-795.48368	-1068.75889	1313.12780	-451.64469	-1250.50668	1415.62708	-533.67344	-1074.56633	1303.38225	-714.28716	-1254.12546	1413.82249	-634.70998	-999.67691	1853.42403	-591.48465	-957.64077	1762.54773	-406.18578	-954.26399	1781.82493	-765.32872	-901.87650	1725.20615	-569.25097	-906.26652	1722.89285	-615.55567	-1025.22555	1611.36388	-325.21841	-1201.96684	1454.36554	-353.02488	-1171.64739	1470.67897	-273.79188	-1115.57777	1302.88291	-274.25319	-1109.02715	1180.77132	-269.93225	-1140.37013	1177.23923	-242.22283	-1028.85278	1636.27337	-862.96430	-1206.22186	1491.55807	-842.53444	-1168.39090	1496.03970	-914.88648	-1106.40146	1338.28046	-887.38708	-1096.01538	1219.06479	-905.43742	-1127.31528	1221.30154	-941.00583	-1175.23646	1267.09807	-482.48242	-1180.98930	1248.68449	-695.00054	-1165.42059	1262.67811	-484.66697	-1171.63113	1259.58220	-658.03276	
37	0.36000000	-1075.14843	838.74948	-425.24671	-1071.54372	712.98189	-435.30628	-1251.65469	418.83946	-437.41539	-1324.44716	388.52973	-480.78220	-1124.84981	342.81018	-400.31273	-1090.13312	364.62733	-475.87987	-1120.42708	826.96186	-766.59381	-1093.45897	713.00603	-743.15860	-1266.53383	406.38508	-729.50303	-1331.37079	380.41687	-678.80888	-1130.06662	343.53762	-762.09453	-1095.70263	366.00279	-694.02687	-1105.01162	604.85577	-455.72914	-1131.70933	720.99390	-384.81091	-1158.05308	606.59372	-390.33971	-1170.68138	732.38573	-787.06940	-1180.68487	611.55226	-794.68195	-1022.14957	1082.10820	-452.14746	-1003.81164	970.08658	-465.72921	-1022.46729	939.07050	-406.47187	-1094.72197	1060.07753	-366.12130	-1075.60342	944.11488	-389.83589	-1071.30753	1083.80229	-784.90472	-1046.51084	949.46432	-768.87461	-1177.45272	1061.88944	-813.02380	-1152.64021	926.61233	-796.64709	-1069.12830	1309.95662	-451.71141	-1249.92391	1414.25645	-533.44253	-1074.84264	1300.40157	-714.09138	-1253.40049	1412.38677	-635.00743	-993.23645	1848.85055	-591.36400	-952.02202	1757.17646	-405.97268	-947.83818	1776.50529	-765.16523	-896.63549	1719.14862	-568.88067	-901.20683	1717.01137	-615.13384	-1021.42524	1606.62520	-325.13495	-1199.76978	1451.87596	-352.79009	-1169.42864	1467.67180	-273.46222	-1115.13252	1299.35083	-274.33582	-1109.59363	1177.13678	-270.28599	-1140.93610	1173.80972	-242.70215	-1023.84393	1631.65438	-863.00651	-1203.24338	1489.37431	-843.59272	-1165.01513	1493.57095	-915.85309	-1104.51194	1335.28387	-887.71010	-1094.64408	1216.06801	-905.84604	-1125.81774	1218.45951	-941.58601	-1176.02088	1264.95160	-482.50915	-1181.77689	1246.66240	-695.03788	-1166.31545	1260.66080	-484.81774	-1172.24439	1257.47248	-658.01386	
38	0.37000000	-1071.20805	837.55323	-425.19624	-1068.16054	711.92902	-435.06777	-1251.18707	419.38313	-437.59954	-1324.06790	389.51272	-481.05487	-1124.74682	342.76255	-400.27649	-1089.84194	364.31009	-475.93515	-1115.81315	825.38370	-767.51668	-1089.59024	711.18357	-743.60991	-1266.12077	406.49330	-729.69091	-1331.24958	380.53042	-678.81900	-1130.01640	343.51763	-762.09216	-1095.58189	365.91061	-694.02321	-1102.74373	604.00552	-455.77640	-1128.38723	720.39714	-384.76569	-1155.74060	606.24766	-390.08002	-1166.41737	731.06366	-787.65695	-1177.60053	610.40151	-795.10539	-1020.69106	1081.52216	-451.86657	-1000.90879	969.72585	-465.41053	-1019.20106	938.51639	-406.11229	-1092.87400	1058.78327	-365.71747	-1072.69251	942.83987	-389.77880	-1069.60642	1082.96457	-784.25490	-1043.20643	948.65041	-769.44815	-1175.57175	1059.41325	-813.61122	-1148.91419	924.46502	-797.76763	-1069.39428	1306.63542	-451.78782	-1249.17977	1412.52322	-533.67110	-1074.90228	1297.24947	-714.22532	-1252.56419	1410.74140	-635.27073	-986.92382	1843.98581	-591.11545	-946.54954	1751.55416	-405.81848	-941.50638	1771.12626	-765.19206	-891.63152	1712.92507	-568.60779	-896.28740	1710.97334	-614.76202	-1017.63680	1601.58483	-325.07941	-1197.42654	1448.93910	-352.55260	-1167.05585	1464.25977	-273.14234	-1114.38668	1295.39174	-274.43405	-1109.86992	1173.27374	-270.62456	-1141.25502	1170.03725	-243.09245	-1018.86885	1626.86789	-863.04890	-1200.18109	1486.81641	-844.52904	-1161.58171	1490.75673	-916.87463	-1102.40674	1331.96136	-888.08253	-1093.00444	1212.83651	-906.20225	-1124.09417	1215.32639	-942.30315	-1176.63394	1262.56614	-482.74707	-1182.31526	1244.42991	-695.29090	-1166.96992	1258.16849	-485.03415	-1172.73980	1255.13087	-658.26941	
39	0.38000000	-1067.04118	836.35096	-424.93354	-1064.70478	710.69907	-435.00160	-1250.67152	420.06778	-437.70824	-1323.69936	390.46184	-481.38827	-1124.65839	342.73612	-400.24512	-1089.52340	363.87483	-476.10366	-1110.95797	823.71237	-768.48246	-1085.50639	709.25959	-744.12390	-1265.70136	406.63659	-729.84512	-1331.14729	380.67043	-678.85435	-1129.96665	343.51099	-762.08090	-1095.49987	365.82545	-694.12437	-1100.40997	602.97488	-456.01120	-1124.92466	719.33070	-385.43147	-1153.38033	605.76397	-389.95504	-1161.87024	729.76457	-788.51399	-1174.37125	609.23907	-795.54371	-1019.11788	1080.77092	-451.63147	-997.97037	969.20894	-465.03173	-1015.90358	937.84385	-405.82031	-1091.37879	1057.21512	-365.31401	-1069.63270	941.49602	-389.52638	-1067.74295	1081.87200	-784.13206	-1039.71455	947.84752	-770.12368	-1173.37717	1056.91059	-814.11462	-1144.98683	922.22858	-798.72157	-1069.57486	1303.28786	-451.72771	-1248.34888	1410.54621	-534.10329	-1074.86673	1293.93356	-714.60871	-1251.67183	1408.77023	-635.40464	-980.74058	1838.86955	-590.76989	-941.27634	1745.65516	-405.74348	-935.48500	1765.46711	-765.13689	-886.84454	1706.65745	-568.38436	-891.56019	1704.77473	-614.55189	-1013.85122	1596.31386	-325.01836	-1195.08413	1445.39179	-352.46999	-1164.54277	1460.36101	-273.05757	-1113.37261	1291.11635	-274.56324	-1109.91301	1169.10316	-270.91799	-1141.34195	1165.98069	-243.32662	-1014.00176	1621.74807	-862.69052	-1197.08978	1483.79030	-845.44437	-1158.14505	1487.49517	-917.76247	-1099.99139	1328.34406	-888.59703	-1091.12586	1209.21294	-906.62380	-1121.97044	1212.05060	-943.23132	-1177.07039	1260.02720	-482.99073	-1182.69870	1241.95172	-695.54118	-1167.50679	1255.51877	-485.09898	-1173.19877	1252.47633	-658.62537	
